<?xml version="1.0" encoding="UTF-8" standalone="no"?>
<!--part of the matt icon theme by sixsixfive released under CC0 (https://creativecommons.org/publicdomain/zero/1.0/) on openclipart-->

<svg
   viewBox="0 0 16384 16384"
   version="1.1"
   id="svg397"
   sodipodi:docname="Commlink_Export_Icons.svg"
   inkscape:version="1.2.1 (9c6d41e410, 2022-07-14)"
   inkscape:export-filename="Commlink_Export_JSON.svg"
   inkscape:export-xdpi="192"
   inkscape:export-ydpi="192"
   width="16384"
   height="16384"
   xmlns:inkscape="http://www.inkscape.org/namespaces/inkscape"
   xmlns:sodipodi="http://sodipodi.sourceforge.net/DTD/sodipodi-0.dtd"
   xmlns:xlink="http://www.w3.org/1999/xlink"
   xmlns="http://www.w3.org/2000/svg"
   xmlns:svg="http://www.w3.org/2000/svg">
  <sodipodi:namedview
     id="namedview399"
     pagecolor="#ffffff"
     bordercolor="#000000"
     borderopacity="0.25"
     inkscape:showpageshadow="2"
     inkscape:pageopacity="0.0"
     inkscape:pagecheckerboard="0"
     inkscape:deskcolor="#d1d1d1"
     showgrid="false"
     inkscape:zoom="8.0234375"
     inkscape:cx="63.813048"
     inkscape:cy="63.626095"
     inkscape:window-width="1787"
     inkscape:window-height="1312"
     inkscape:window-x="1765"
     inkscape:window-y="32"
     inkscape:window-maximized="0"
     inkscape:current-layer="svg397" />
  <defs
     id="0">
    <linearGradient
       id="2">
      <stop
         id="F"
         stop-color="#eee" />
      <stop
         offset="1"
         id="G"
         stop-color="#d2d2d2" />
    </linearGradient>
    <linearGradient
       id="3">
      <stop
         id="H" />
      <stop
         offset="1"
         id="I"
         stop-opacity="0.536" />
    </linearGradient>
    <linearGradient
       id="4">
      <stop
         id="J" />
      <stop
         offset="1"
         id="K"
         stop-color="#ddd"
         stop-opacity="0" />
    </linearGradient>
    <filter
       id="5"
       x="-0.14513263"
       width="1.2902653"
       y="-0.17041424"
       height="1.3408285">
      <feGaussianBlur
         stdDeviation="1.81881"
         id="L" />
    </filter>
    <filter
       id="6"
       x="-0.069831289"
       y="-0.052595388"
       width="1.1396626"
       height="1.1051908">
      <feGaussianBlur
         stdDeviation="2.58594"
         id="M" />
    </filter>
    <radialGradient
       xlink:href="#2"
       r="44.419998"
       cy="100.32"
       cx="81.790001"
       gradientTransform="matrix(2.0026052,-1.5970314,1.7773333,2.2286954,-279.23554,23.703826)"
       gradientUnits="userSpaceOnUse"
       id="7" />
    <radialGradient
       xlink:href="#3"
       r="18.278999"
       cy="22.254"
       cx="89.510002"
       gradientTransform="matrix(1,0,0,0.97467889,0,0.43910718)"
       gradientUnits="userSpaceOnUse"
       id="8" />
    <linearGradient
       xlink:href="#4"
       y2="25.1"
       x2="86.82"
       y1="14.793"
       x1="98.330002"
       gradientTransform="matrix(0.96714879,0,0,0.96714879,0.45622123,-0.08680339)"
       gradientUnits="userSpaceOnUse"
       id="9" />
    <linearGradient
       id="linearGradient3005"
       x1="-666.12"
       x2="-553.27002"
       y1="413.04001"
       y2="525.90997"
       gradientTransform="matrix(0.99884,0,0,0.9987,689.01,-388.84)"
       gradientUnits="userSpaceOnUse"
       xlink:href="#linearGradient8385" />
    <linearGradient
       id="linearGradient8385">
      <stop
         offset="0"
         id="stop1906" />
      <stop
         stop-color="#fff"
         offset="1"
         id="stop1908" />
    </linearGradient>
    <linearGradient
       id="linearGradient3002"
       x1="-553.27002"
       x2="-666.12"
       y1="525.90997"
       y2="413.04999"
       gradientTransform="matrix(0.99884,0,0,0.9987,689.01,-388.84)"
       gradientUnits="userSpaceOnUse"
       xlink:href="#linearGradient8385" />
  </defs>
  <g
     id="1"
     transform="translate(1.1324584,3.3099998)">
    <path
       transform="matrix(0.96714879,0,0,0.97126149,0.45622123,-0.61456831)"
       id="A"
       d="M 20.09375,4.1185004 V 122.1185 H 108.9375 V 35.96225 l -0.59375,-0.625 c 0.21045,0.144391 0.41688,0.302162 0.625,0.4375 L 78.09375,4.1497504 c 0.05654,0.079597 0.09993,0.1703021 0.15625,0.25 L 78,4.1185004 Z"
       opacity="0.809"
       filter="url(#6)" />
    <path
       id="B"
       d="M 19.889867,2.5426324 V 116.66619 H 105.81499 V 33.340277 L 75.893827,2.5426324 Z"
       fill="url(#7)"
       style="fill:url(#7)" />
    <path
       transform="matrix(1.016085,0,0,1.112241,-4.9246966,-0.34524137)"
       d="m 81.698039,28.309502 0.135161,-8.351 C 81.901124,13.359407 80.956142,8.4107397 77.785779,3.9471419 L 80.362343,3.9159389 107.86271,29.53084 c -4.06802,-2.645393 -9.621189,-0.791242 -16.861906,-1.025606 z"
       id="C"
       opacity="0.505"
       fill="url(#8)"
       filter="url(#5)"
       style="fill:url(#8)" />
    <path
       id="D"
       d="m 81.615861,25.811681 0.130721,-8.07666 C 81.812274,11.352715 79.055005,6.8989516 75.988792,2.5819884 L 105.85553,33.170155 c -3.93438,-2.558489 -8.239658,-6.942507 -15.242511,-7.169171 z"
       fill="#eeeeee" />
    <path
       d="m 81.615861,25.811681 0.130721,-8.07666 C 81.812274,11.352715 79.055005,6.8989516 75.988792,2.5819884 L 105.85553,33.170155 c -3.93438,-2.558489 -8.239658,-6.942507 -15.242511,-7.169171 z"
       id="E"
       fill="url(#9)"
       style="fill:url(#9)" />
  </g>
  <rect
     style="fill:#c44895;fill-opacity:1"
     id="rect599"
     width="86.034966"
     height="32.493534"
     x="20.949945"
     y="87.535492" />
  <g
     fill-rule="evenodd"
     id="JSON-Logo"
     transform="matrix(0.34735872,0,0,0.34735872,36.504336,26.377513)"
     style="display:inline">
    <path
       d="m 79.865,119.1 c 35.398,48.255 70.04,-13.469 69.989,-50.587 C 149.7938,24.627 105.313,0.099 79.836,0.099 38.944,0.099 0,33.895 0,80.135 0,131.531 44.64,160 79.836,160 71.8715,158.8532 45.33,153.166 44.973,92.033 44.73313,50.686 58.461,34.167 79.778,41.434 c 0.47743,0.17707 23.514,9.2645 23.514,38.951 0,29.56 -23.427,38.715 -23.427,38.715 z"
       color="#000000"
       fill="url(#linearGradient3005)"
       id="path1915"
       style="fill:url(#linearGradient3005)" />
    <path
       d="M 79.823,41.401 C 56.433,33.3391 27.78,52.617 27.78,91.23 27.78,154.278 74.501,160 80.164,160 121.056,160 160,126.204 160,79.964 160,28.568 115.36,0.099 80.164,0.099 c 9.7481,-1.35 52.541,10.55 52.541,69.037 0,38.141 -31.953,58.905 -52.735,50.033 -0.47743,-0.17707 -23.514,-9.2645 -23.514,-38.951 0,-29.56 23.367,-38.818 23.367,-38.818 z"
       color="#000000"
       fill="url(#linearGradient3002)"
       id="path1917"
       style="fill:url(#linearGradient3002)" />
  </g>
  <text
     xml:space="preserve"
     style="font-size:26.6667px;display:inline;fill:#ffffff;fill-opacity:1"
     x="34.794048"
     y="113.0955"
     id="text2096"
     inkscape:label="JSON"><tspan
       sodipodi:role="line"
       id="tspan2094"
       x="34.794048"
       y="113.0955">JSON</tspan></text>
</svg>
